<?xml version="1.0" encoding="utf-8"?>
<!-- Generator: Adobe Illustrator 22.1.0, SVG Export Plug-In . SVG Version: 6.00 Build 0)  -->
<svg version="1.1" id="Layer_1" xmlns="http://www.w3.org/2000/svg" xmlns:xlink="http://www.w3.org/1999/xlink" x="0px" y="0px"
	 viewBox="0 0 1000 1000" style="enable-background:new 0 0 1000 1000;" xml:space="preserve">
<!-- <style type="text/css">
	.st0{stroke:#000000;stroke-miterlimit:10;}
</style> -->
<path fill = "#012E2B" class="st0" d="M967.2,898.2L967,792.3L597.2,523.2c76.8-20.1,145.3-47.6,200.4-98c86.9-79.5,110.5-196.8,110.1-315l-369.8,1.2
	l0-0.1l-39.6-0.1l-51.1-0.6l0,303.9L28.7,110.8l0-0.7l-1,0l0.8,106.8l360.2,264.2c-76.8,19.8-145.4,47-200.8,97.3
	C100.7,657.5,76.7,774.7,76.7,892.9l372.7,0.2l0,0.4l39.6-0.1l41,0.4l3,0l0,0l7,0.1L539,590L967.2,898.2z M443.8,820.8l-274.3-2.4
	l-0.5-1.1c1.4-137,124.9-251.6,275.5-251.3l2,0L443.8,820.8z M540.9,183.7l274.3,1.4l0.5,1.1c-0.9,137-123.9,252.1-274.5,252.3l-2,0
	L540.9,183.7z"/>
</svg>
